<?xml version="1.0" encoding="UTF-8" standalone="no"?>
<!-- Created with Inkscape (http://www.inkscape.org/) -->

<svg
   width="81.891029mm"
   height="123.28307mm"
   viewBox="0 0 91.891029 113.28307"
   version="1.1"
   id="svg1"
   xml:space="preserve"
   xmlns:inkscape="http://www.inkscape.org/namespaces/inkscape"
   xmlns:sodipodi="http://sodipodi.sourceforge.net/DTD/sodipodi-0.dtd"
   xmlns="http://www.w3.org/2000/svg"
   xmlns:svg="http://www.w3.org/2000/svg"><sodipodi:namedview
     id="namedview1"
     pagecolor="#ffffff"
     bordercolor="#a41817"
     borderopacity="0.25"
     inkscape:showpageshadow="2"
     inkscape:pageopacity="0.0"
     inkscape:pagecheckerboard="0"
     inkscape:deskcolor="#d1d1d1"
     inkscape:document-units="mm" /><defs
     id="defs1" /><g
     inkscape:label="Layer 1"
     inkscape:groupmode="layer"
     id="layer1"
     transform="translate(-459.12587,-59.858446)"><g
       id="g256"
       transform="translate(165.89189,1.6054054)"
       inkscape:tile-cx="500.07134"
       inkscape:tile-cy="116.49997"
       inkscape:tile-w="81.891026"
       inkscape:tile-h="113.28306"
       inkscape:tile-x0="459.12583"
       inkscape:tile-y0="59.858445"
       inkscape:export-filename="hourglass-for-pattern.svg"
       inkscape:export-xdpi="96"
       inkscape:export-ydpi="96"><path
         style="fill:none;stroke:#a41817;stroke-width:5;stroke-dasharray:none"
         d="m 334.69792,114.75776 c 0,0 -16.00946,-1.47162 -23.74662,-16.054049 -7.73717,-14.58243 -6.6223,-30.5027 -6.6223,-30.5027 h 60.7889 c 0,0 1.11487,15.92027 -6.6223,30.5027 -7.73716,14.582429 -23.74662,16.054049 -23.74662,16.054049 z"
         id="path2-1"
         sodipodi:nodetypes="czcczcc" /><path
         style="fill:none;stroke:#a41817;stroke-width:5;stroke-dasharray:none"
         d="m 334.69792,115.03136 c 0,0 -16.00946,1.47162 -23.74662,16.05405 -7.73717,14.58243 -6.6223,30.5027 -6.6223,30.5027 h 60.7889 c 0,0 1.11487,-15.92027 -6.6223,-30.5027 -7.73716,-14.58243 -23.74662,-16.05405 -23.74662,-16.05405 z"
         id="path5-3"
         sodipodi:nodetypes="czcczcc" /><rect
         style="fill:#a41817;stroke:#a41817;stroke-width:0.590636"
         id="rect5-1"
         width="80.21241"
         height="9.6105051"
         x="294.61725"
         y="161.63028"
         rx="2.3953071"
         ry="2.1091123" /><rect
         style="fill:#a41817;stroke:#a41817;stroke-width:0.590636"
         id="rect5-4-9"
         width="80.21241"
         height="9.6105051"
         x="293.52927"
         y="58.548359"
         rx="2.3953071"
         ry="2.1091123" /><path
         style="fill:#a41817;stroke:#a41817;stroke-width:0.552"
         d="m 304.44763,161.55831 c 0,0 0.4677,-19.20605 5.04461,-26.45951 4.34974,-6.89346 12.39284,-2.72866 17.98858,-8.22967 1.91151,-1.87915 4.42328,-3.71422 5.61892,-5.75271 1.19564,-2.03849 1.73919,-5.88648 1.73919,-5.88648 0,0 1.00117,4.08359 2.01487,5.88648 1.35923,2.41744 4.15108,3.86175 6.12031,5.88649 5.39479,5.54687 12.80891,3.11213 17.33637,9.51488 4.52746,6.40275 4.63506,24.08507 4.71908,25.12364 z"
         id="path6-0"
         sodipodi:nodetypes="csszcsszcc" /><path
         style="fill:#a41817;stroke:#a41817;stroke-width:0.552"
         d="m 313.80159,102.43507 c 0,0 5.00567,5.47174 9.83834,8.79775 5.15918,3.55073 10.97353,3.50018 10.97353,3.50018 0,0 7.77044,-0.37784 13.52772,-4.68267 5.45669,-4.08007 7.80445,-7.52065 7.80445,-7.52065 l -21.23756,-5.486771 z"
         id="path7-8"
         sodipodi:nodetypes="cscsccc" /></g></g></svg>
